# AST/ASF file generated using VICON BodyLanguage
# -----------------------------------------------
:version 1.10
:name VICON
:units
  mass 1.0
  length 0.45
  angle deg
:documentation
   .ast/.asf automatically generated from VICON data using
   VICON BodyBuilder and BodyLanguage model FoxedUp or BRILLIANT.MOD
:root
   order TX TY TZ RX RY RZ
   axis XYZ
   position 0 0 0  
   orientation 0 0 0 
:bonedata
  begin
     id 1 
     name lhipjoint
     direction 0.700308 -0.549349 0.455834 
     length 2.59063 
     axis 0 0 0  XYZ
  end
  begin
     id 2 
     name lfemur
     direction 0.34202 -0.939693 0  
     length 6.31066  
     axis 0 0 20  XYZ
    dof rx ry rz
    limits (-160.0 20.0)
           (-70.0 70.0)
           (-60.0 70.0)
  end
  begin
     id 3 
     name ltibia
     direction 0.34202 -0.939693 0   
     length 7.36093   
     axis 0 0 20   XYZ
    dof rx
    limits (-10.0 170.0)
  end
  begin
     id 4 
     name lfoot
     direction 0.0905332 -0.248738 0.96433   
     length 2.0233   
     axis -90 7.62852e-016 20   XYZ
    dof rx rz
    limits (-45.0 90.0)
           (-70.0 20.0)
  end
  begin
     id 5 
     name ltoes
     direction 1.53573e-011 -4.21855e-011 1   
     length 1.01524   
     axis -90 7.62852e-016 20   XYZ
    dof rx
    limits (-90.0 20.0)
  end
  begin
     id 6 
     name rhipjoint
     direction -0.61416 -0.607328 0.503944   
     length 2.34332  
     axis 0 0 0  XYZ 
  end
  begin
     id 7 
     name rfemur
     direction -0.34202 -0.939693 0   
     length 6.58548   
     axis 0 0 -20   XYZ
    dof rx ry rz
    limits (-160.0 20.0)
           (-70.0 70.0)
           (-70.0 60.0)
  end
  begin
     id 8 
     name rtibia
     direction -0.34202 -0.939693 0   
     length 7.20707   
     axis 0 0 -20   XYZ
    dof rx
    limits (-10.0 170.0)
 end
 begin
     id 9 
     name rfoot
     direction -0.136772 -0.375778 0.916561   
     length 1.92184  
     axis -90 -7.62852e-016 -20   XYZ
    dof rx rz
    limits (-45.0 90.0)
           (-20.0 70.0)
  end
  begin
     id 10 
     name rtoes
     direction -1.53535e-011 -4.21828e-011 1   
     length 0.951089   
     axis -90 -7.62852e-016 -20   XYZ
    dof rx
    limits (-90.0 20.0)
  end
  begin
     id 11 
     name lowerback
     direction -0.0444974 0.988086 -0.147332   
     length 1.9609   
     axis 0 0 0   XYZ
    dof rx ry rz
    limits (-20.0 45.0)
           (-30.0 30.0)
           (-30.0 30.0)
  end
  begin
     id 12 
     name upperback
     direction 0.00613146 0.999513 0.0306081   
     length 1.94944   
     axis 0 0 0   XYZ
    dof rx ry rz
    limits (-20.0 45.0)
           (-30.0 30.0)
           (-30.0 30.0)
  end
  begin
     id 13 
     name thorax
     direction 0.0254621 0.994518 0.101418   
     length 2.0119   
     axis 0 0 0   XYZ
    dof rx ry rz
    limits (-20.0 45.0)
           (-30.0 30.0)
           (-30.0 30.0)
  end
  begin
     id 14 
     name lowerneck
     direction 0.0168698 0.977854 0.208608   
     length 1.6375   
     axis 0 0 0   XYZ
    dof rx ry rz
    limits (-20.0 45.0)
           (-30.0 30.0)
           (-30.0 30.0)
  end
  begin
     id 15 
     name upperneck
     direction -0.0283988 0.989338 -0.142843   
     length 1.6851   
     axis 0 0 0   XYZ
    dof rx ry rz
    limits (-20.0 45.0)
           (-30.0 30.0)
           (-30.0 30.0)
  end
  begin
     id 16
     name head
     direction -0.0129422 0.99741 -0.0707489  
     length 1.69029  
     axis 0 0 0   XYZ
    dof rx ry rz
    limits (-20.0 45.0)
           (-30.0 30.0)
           (-30.0 30.0)
  end
  begin
     id 17 
     name lclavicle
     direction 0.820295 0.564628 -0.0911715  
     length 3.16484  
     axis 0 0 0   XYZ
    dof ry rz
    limits (-20.0 10.0)
           (0.0 20.0)
  end
  begin
     id 18 
     name lhumerus
     direction 1 -4.48969e-011 1.00186e-027   
     length 5.17853   
     axis 180 -30 -90   XYZ
    dof rx ry rz
    limits (-60.0 90.0)
           (-90.0 90.0)
           (-90.0 90.0)
  end
  begin
     id 19
     name lradius
     direction 1 -4.48966e-011 -1.52922e-027   
     length 3.40399   
     axis 180 -30 -90   XYZ
    dof rx
    limits (-10.0 170.0)
  end
  begin
     id 20
     name lwrist
     direction 1 -4.48981e-011 -3.80893e-027   
     length 1.70199   
     axis 1.1049e-015 90 90   XYZ
    dof ry
    limits (-180.0 0.0)
 end
  begin
     id 21 
     name lhand
     direction 1 -4.48957e-011 -7.61786e-027   
     length 0.708964   
     axis 4.86085e-015 90 90   XYZ
    dof rx rz
    limits (-90.0 90.0)
           (-45.0 45.0)
  end
  begin
     id 22 
     name lfingers
     direction 1 -4.48929e-011 -1.52357e-026   
     length 0.571585   
     axis 9.7217e-015 90 90   XYZ
    dof rx
    limits (0.0 90.0)
  end
  begin
     id 23
     name lthumb
     direction 0.707107 -6.34905e-011 0.707107   
     length 0.820685   
     axis -90 45 2.85299e-015   XYZ
    dof rx rz
    limits (-45.0 45.0)
           (-45.0 45.0)
  end
  begin
     id 24 
     name rclavicle
     direction -0.858602 0.463947 -0.218075   
     length 3.35137  
     axis 0 0 0   XYZ 
    dof ry rz
    limits (-10.0 20.0)
           (-20.0 0.0)
  end
  begin
     id 25 
     name rhumerus
     direction -1 -4.48969e-011 -1.98511e-027  
     length 5.42351   
     axis 180 30 90   XYZ
    dof rx ry rz
    limits (-90.0 60.0)
           (-90.0 90.0)
           (-90.0 90.0)
  end
  begin
     id 26 
     name rradius
     direction -1 -4.48961e-011 -2.82624e-027   
     length 3.42066   
     axis 180 30 90   XYZ
    dof rx
    limits (-10.0 170.0)
  end
  begin
     id 27 
     name rwrist
     direction -1 -4.48966e-011 -3.80893e-027   
     length 1.71033   
     axis 1.1049e-015 -90 -90   XYZ
    dof ry
    limits (-180.0 0.0)
  end
  begin
     id 28
     name rhand
     direction -1 -4.48964e-011 -7.61786e-027   
     length 0.743608   
     axis 4.86085e-015 -90 -90   XYZ
    dof rx rz
    limits (-90.0 90.0)
           (-45.0 45.0)
  end
  begin
     id 29
     name rfingers
     direction -1 -4.48961e-011 -1.52357e-026   
     length 0.599516   
     axis 9.7217e-015 -90 -90   XYZ
    dof rx
    limits (0.0 90.0)
  end
  begin
     id 30
     name rthumb
     direction -0.707107 -6.34913e-011 0.707107   
     length 0.860789   
     axis -90 -45 -2.85299e-015   XYZ
    dof rx rz
    limits (-45.0 45.0)
           (-45.0 45.0)
  end
:hierarchy
  begin
    root lhipjoint rhipjoint lowerback
    lhipjoint lfemur
    lfemur ltibia
    ltibia lfoot
    lfoot ltoes
    rhipjoint rfemur
    rfemur rtibia
    rtibia rfoot
    rfoot rtoes
    lowerback upperback
    upperback thorax
    thorax lowerneck lclavicle rclavicle
    lowerneck upperneck
    upperneck head
    lclavicle lhumerus
    lhumerus lradius
    lradius lwrist
    lwrist lhand lthumb
    lhand lfingers
    rclavicle rhumerus
    rhumerus rradius
    rradius rwrist
    rwrist rhand rthumb
    rhand rfingers
  end

#!OML:ASF E:\mmandel\Project 1\Capture day 1\Session 2\Subject.ASF
:FULLY-SPECIFIED
:DEGREES
758
root 6.99396 14.5531 -1.34433 79.1517 79.6455 60.8713
lowerback 26.2641 1.10498 -4.30836
upperback 3.06196 0.245489 -2.03053
thorax -11.2127 0.373126 0.0797068
lowerneck -18.9728 0.979776 2.40094
upperneck 5.64963 1.79781 -8.63846
head 4.86651 0.387615 -2.94069
rclavicle 1.03368e-014 -6.36111e-015
rhumerus 0.661528 6.19439 -76.523
rradius 74.0682
rwrist -4.14185
rhand -13.5275 34.14
rfingers 7.12502
rthumb 12.5847 4.53903
lclavicle 1.03368e-014 -6.36111e-015
lhumerus 2.77353 -18.4926 70.0856
lradius 65.4568
lwrist 39.7066
lhand -14.3524 -24.2576
lfingers 7.12502
lthumb 11.7893 5.39063
rfemur -59.213 -15.7938 6.43806
rtibia 72.1456
rfoot -28.8427 -0.72126
rtoes -11.6293
lfemur -51.2568 19.7414 -21.4692
ltibia 59.2522
lfoot -18.9934 -7.18475
ltoes -10.6545
759
root 6.99661 14.5358 -1.38876 78.411 79.722 60.2183
lowerback 26.1036 1.1398 -4.5086
upperback 3.14883 0.261802 -1.93283
thorax -11.0293 0.389554 0.303299
lowerneck -18.9328 0.93782 2.3378
upperneck 5.68219 1.73864 -8.48371
head 4.86379 0.366484 -2.88701
rclavicle 4.37326e-015 -3.18055e-014
rhumerus 0.988374 5.77102 -76.6513
rradius 73.9745
rwrist -4.13234
rhand -13.5578 34.1725
rfingers 7.12502
rthumb 12.5554 4.56973
lclavicle 4.37326e-015 -3.18055e-014
lhumerus 3.19842 -17.8471 70.1692
lradius 64.3917
lwrist 39.7114
lhand -14.4895 -23.9336
lfingers 7.12502
lthumb 11.6571 5.72215
rfemur -59.1782 -15.8642 6.36622
rtibia 72.2436
rfoot -28.8033 -0.573379
rtoes -11.4676
lfemur -51.4374 19.8681 -21.5511
ltibia 59.7395
lfoot -19.2298 -7.13809
ltoes -10.0851
760
root 7.0007 14.5181 -1.43189 77.7973 79.8351 59.7544
lowerback 26.1135 1.18007 -4.56646
upperback 3.23229 0.306278 -1.92936
thorax -10.9406 0.41264 0.326041
lowerneck -18.9121 0.865355 2.26627
upperneck 5.80584 1.61666 -8.10371
head 4.88536 0.325569 -2.76727
rclavicle 7.15625e-015 -6.36111e-015
rhumerus 1.28004 5.03734 -76.9563
rradius 73.7689
rwrist -3.99774
rhand -13.5862 34.3447
rfingers 7.12502
rthumb 12.5281 4.74025
lclavicle 7.15625e-015 -6.36111e-015
lhumerus 3.83804 -17.3904 70.0997
lradius 63.2289
lwrist 39.8066
lhand -14.8254 -23.4802
lfingers 7.12502
lthumb 11.3332 6.19355
rfemur -59.0316 -15.8755 6.28689
rtibia 72.3429
rfoot -28.836 -0.457331
rtoes -11.413
lfemur -51.4974 19.835 -21.5148
ltibia 60.1966
lfoot -19.5262 -6.9348
ltoes -10.4366
761
root 6.99901 14.5033 -1.47839 77.3508 79.9398 59.4324
lowerback 26.3008 1.20393 -4.56063
upperback 3.24398 0.325946 -1.97045
thorax -11.0262 0.423002 0.266385
lowerneck -18.9866 0.842554 2.234
upperneck 5.978 1.55697 -7.74791
head 4.94171 0.312053 -2.6564
rclavicle -3.97569e-016 3.29983e-014
rhumerus 1.38256 4.23679 -77.3421
rradius 73.6676
rwrist -3.85786
rhand -13.6443 34.5363
rfingers 7.12502
rthumb 12.4721 4.92844
lclavicle -3.97569e-016 3.29983e-014
lhumerus 4.30083 -16.9196 70.1124
lradius 62.1252
lwrist 39.7482
lhand -15.2291 -23.1428
lfingers 7.12502
lthumb 10.9438 6.55198
rfemur -58.9443 -15.8672 6.17559
rtibia 72.4315
rfoot -28.8323 -0.423063
rtoes -11.4121
lfemur -51.6069 19.8437 -21.5507
ltibia 60.608
lfoot -19.7768 -6.77004
ltoes -11.1751
762
root 6.9943 14.4923 -1.52655 76.8439 79.9895 59.0333
lowerback 26.4807 1.23592 -4.75227
upperback 3.25158 0.309638 -1.92459
thorax -11.1119 0.427172 0.430774
lowerneck -19.0276 0.849876 2.10626
upperneck 6.01535 1.5622 -7.4488
head 4.95463 0.329353 -2.54064
rclavicle -3.18055e-015 -5.92378e-014
rhumerus 1.48509 3.72709 -77.5847
rradius 73.6617
rwrist -3.77134
rhand -13.8443 34.6062
rfingers 7.12502
rthumb 12.2792 4.98671
lclavicle -3.18055e-015 -5.92378e-014
lhumerus 4.64914 -16.2503 70.2377
lradius 60.9915
lwrist 39.8369
lhand -15.4924 -22.8959
lfingers 7.12502
lthumb 10.6898 6.81213
rfemur -58.9099 -15.8611 6.01254
rtibia 72.5032
rfoot -28.7929 -0.425228
rtoes -11.3511
lfemur -51.7305 19.9256 -21.6872
ltibia 60.9853
lfoot -20.0391 -6.68191
ltoes -11.7907
763
root 6.98866 14.4779 -1.57491 76.5585 80.0023 58.8745
lowerback 26.6295 1.26463 -4.95279
upperback 3.30091 0.289122 -1.91036
thorax -11.1326 0.428919 0.567316
lowerneck -18.8395 0.781043 2.07553
upperneck 5.80603 1.4318 -7.16928
head 4.84855 0.290988 -2.45742
rclavicle 3.97569e-016 5.00937e-014
rhumerus 1.70704 3.14458 -77.882
rradius 73.5276
rwrist -3.72487
rhand -14.0453 34.6809
rfingers 7.12502
rthumb 12.0854 5.04987
lclavicle 3.97569e-016 5.00937e-014
lhumerus 5.04519 -15.7612 70.2746
lradius 59.8753
lwrist 40.4155
lhand -15.6522 -22.5764
lfingers 7.12502
lthumb 10.5357 7.13954
rfemur -58.8649 -15.9236 5.8093
rtibia 72.5752
rfoot -28.7609 -0.395152
rtoes -11.5341
lfemur -51.829 19.8658 -21.8204
ltibia 61.3618
lfoot -20.3838 -6.58469
ltoes -11.8711
764
root 6.98101 14.4605 -1.62124 75.9839 80.0543 58.3234
lowerback 26.6532 1.32327 -5.08516
upperback 3.36581 0.331994 -1.92014
thorax -11.0724 0.454297 0.617514
lowerneck -18.6947 0.656539 2.06052
upperneck 5.59527 1.21882 -6.83812
head 4.74494 0.214547 -2.36839
rclavicle -2.18663e-014 -1.74931e-014
rhumerus 1.87671 2.38593 -78.2585
rradius 73.4175
rwrist -3.71591
rhand -14.2193 34.7121
rfingers 7.12502
rthumb 11.9177 5.07129
lclavicle -2.18663e-014 -1.74931e-014
lhumerus 5.46638 -15.4758 70.2769
lradius 58.8168
lwrist 41.2
lhand -16.0572 -22.3743
lfingers 7.12502
lthumb 10.145 7.36114
rfemur -58.9672 -15.8745 5.70745
rtibia 72.647
rfoot -28.6764 -0.413554
rtoes -11.6557
lfemur -52.0511 19.7875 -21.8782
ltibia 61.7381
lfoot -20.7692 -6.45802
ltoes -11.5987
765
root 6.97433 14.4468 -1.66761 74.9615 80.235 57.2399
lowerback 26.6459 1.3807 -5.14174
upperback 3.35783 0.394641 -1.86455
thorax -11.0814 0.486224 0.690676
lowerneck -18.8162 0.643311 2.02939
upperneck 5.74832 1.18117 -6.56219
head 4.80632 0.207578 -2.28114
rclavicle 2.38542e-015 3.1408e-014
rhumerus 1.93605 1.7057 -78.6185
rradius 73.3277
rwrist -3.667
rhand -14.429 34.5885
rfingers 7.12502
rthumb 11.7154 4.93608
lclavicle 2.38542e-015 3.1408e-014
lhumerus 5.72567 -14.9796 70.4021
lradius 57.8084
lwrist 41.6082
lhand -16.6609 -22.2021
lfingers 7.12502
lthumb 9.56249 7.56088
rfemur -59.1213 -15.7537 5.79444
rtibia 72.6598
rfoot -28.5621 -0.471187
rtoes -11.4307
lfemur -52.3613 19.7529 -21.801
ltibia 62.0808
lfoot -21.0292 -6.35917
ltoes -10.8871
766
root 6.97573 14.4435 -1.72026 73.908 80.3449 56.134
lowerback 26.5394 1.38573 -5.16231
upperback 3.34164 0.397944 -1.87629
thorax -11.0444 0.486802 0.689628
lowerneck -18.8334 0.778217 2.09811
upperneck 5.98392 1.33003 -6.3849
head 4.88757 0.287647 -2.22348
rclavicle 9.54166e-015 3.61788e-014
rhumerus 1.97524 1.18036 -79.0269
rradius 73.1899
rwrist -3.67806
rhand -14.7643 34.4376
rfingers 7.12502
rthumb 11.392 4.76709
lclavicle 9.54166e-015 3.61788e-014
lhumerus 5.82122 -14.2619 70.5174
lradius 56.8389
lwrist 41.6722
lhand -16.9706 -21.975
lfingers 7.12502
lthumb 9.26373 7.8015
rfemur -59.1442 -15.7956 5.79263
rtibia 72.5512
rfoot -28.437 -0.340103
rtoes -11.4587
lfemur -52.567 19.8021 -21.8676
ltibia 62.3423
lfoot -21.1957 -6.29527
ltoes -10.198
767
root 6.98834 14.4505 -1.77571 73.0492 80.3038 55.2487
lowerback 26.2762 1.38157 -5.26216
upperback 3.38814 0.377619 -1.94954
thorax -10.8518 0.476425 0.67649
lowerneck -18.7806 0.748517 2.14357
upperneck 6.13017 1.25133 -6.1297
head 4.91865 0.264052 -2.1582
rclavicle -4.37326e-015 -4.73108e-014
rhumerus 2.0574 0.680285 -79.4715
rradius 72.9857
rwrist -3.7259
rhand -15.1131 34.4655
rfingers 7.12502
rthumb 11.0557 4.77664
lclavicle -4.37326e-015 -4.73108e-014
lhumerus 6.07323 -13.6131 70.5426
lradius 55.6318
lwrist 41.7152
lhand -17.0941 -21.9598
lfingers 7.12502
lthumb 9.14459 7.82197
rfemur -59.0155 -15.9411 5.58356
rtibia 72.3371
rfoot -28.3191 -0.0101474
rtoes -11.4748
lfemur -52.5743 19.8494 -22.1104
ltibia 62.5484
lfoot -21.4019 -6.27264
ltoes -9.35362
768
root 6.9975 14.4551 -1.8253 72.0457 80.3804 54.2981
lowerback 26.2315 1.42154 -5.37954
upperback 3.41566 0.407635 -1.89235
thorax -10.7989 0.495176 0.798991
lowerneck -18.8093 0.565946 1.9997
upperneck 6.35505 1.0109 -5.81876
head 4.97942 0.158348 -2.06089
rclavicle 8.74653e-015 -2.90226e-014
rhumerus 2.10605 0.192443 -79.7957
rradius 72.7783
rwrist -3.78898
rhand -15.2098 34.5636
rfingers 7.12502
rthumb 10.9624 4.86983
lclavicle 8.74653e-015 -2.90226e-014
lhumerus 6.51994 -13.0225 70.6844
lradius 54.1691
lwrist 41.6726
lhand -17.2348 -21.6861
lfingers 7.12502
lthumb 9.00876 8.10159
rfemur -58.7985 -15.9026 5.46528
rtibia 72.1075
rfoot -28.2142 0.258249
rtoes -10.8
lfemur -52.5161 19.7753 -22.11
ltibia 62.7694
lfoot -21.5416 -6.2549
ltoes -8.27806
769
root 6.99024 14.4495 -1.86904 71.0525 80.6321 53.4201
lowerback 26.5266 1.46596 -5.40411
upperback 3.42344 0.454054 -1.75864
thorax -10.9481 0.523859 0.942955
lowerneck -18.8249 0.495038 1.72521
upperneck 6.49847 0.94693 -5.4888
head 5.02013 0.139556 -1.9191
rclavicle -1.94809e-014 -2.18663e-014
rhumerus 2.08945 -0.358507 -80.081
rradius 72.7003
rwrist -3.82967
rhand -15.1797 34.5451
rfingers 7.12502
rthumb 10.9914 4.85288
lclavicle -1.94809e-014 -2.18663e-014
lhumerus 6.88048 -12.3618 70.9405
lradius 52.9333
lwrist 41.4424
lhand -17.4197 -20.9526
lfingers 7.12502
lthumb 8.83034 8.84263
rfemur -58.6433 -15.7326 5.54827
rtibia 71.9079
rfoot -28.0407 0.176426
rtoes -10.5644
lfemur -52.5935 19.6413 -21.8729
ltibia 63.0248
lfoot -21.5298 -6.19916
ltoes -7.50237
770
root 6.97429 14.4428 -1.91415 70.4228 80.8281 52.8075
lowerback 26.7712 1.47223 -5.39268
upperback 3.44773 0.455685 -1.73328
thorax -11.0483 0.527799 0.960821
lowerneck -19.0098 0.472639 1.66429
upperneck 6.67077 0.90354 -5.21954
head 5.09886 0.129997 -1.82979
rclavicle 0 2.54444e-014
rhumerus 2.19729 -1.03536 -80.5145
rradius 72.5645
rwrist -3.79914
rhand -15.4062 34.3978
rfingers 7.12502
rthumb 10.7729 4.69404
lclavicle 0 2.54444e-014
lhumerus 7.11729 -11.6771 71.0872
lradius 51.9925
lwrist 41.0867
lhand -17.6879 -20.2584
lfingers 7.12502
lthumb 8.57151 9.54763
rfemur -58.6706 -15.6744 5.62622
rtibia 71.7548
rfoot -27.8288 0.0104596
rtoes -10.9336
lfemur -52.9081 19.5457 -21.8079
ltibia 63.3335
lfoot -21.5168 -6.01536
ltoes -7.69455
